<svg width="21" height="28" viewBox="0 0 21 28" fill="none" xmlns="http://www.w3.org/2000/svg">
<path d="M2.74704 11.7464L2.74624 11.7481H0.804248L4.56009 3.89806L4.35045 3.15967L0 12.2523H1.94199L1.9428 12.2506H6.91332L6.77365 11.7464H2.74704Z" fill="#F2F4F7"/>
<path d="M4.52363 10.6277L4.52283 10.6294H2.5811L5.01851 5.53464L4.80405 4.77832L1.77686 11.1336H3.71858L3.71938 11.1319H6.59913L6.45946 10.6277H4.52363Z" fill="#F2F4F7"/>
<path d="M15.7874 10.6227V10.6216H14.9183L14.9174 10.6233H9.94666L10.0863 11.1272H14.1336L14.1344 11.1255H15.0032V11.1266H20.2161L12.328 27.9922H12.8763L21 10.6227H15.7874Z" fill="#F2F4F7"/>
<path d="M14.0778 11.7443V11.7432H13.2087L13.2079 11.7448H10.2748L10.4145 12.2488H12.424L12.4248 12.2471H13.2939V12.2479H18.5068L11.1576 28.0001H11.6937L19.2907 11.7443H14.0778Z" fill="#F2F4F7"/>
<path d="M5.33512 1.42334L5.0094 2.11691L11.4967 25.1784L11.8147 24.5017L5.33512 1.42334Z" fill="#F2F4F7"/>
<path d="M6.0037 0L5.67798 0.693571L12.1656 23.7551L12.4833 23.0783L6.0037 0Z" fill="#F2F4F7"/>
<path d="M20.4363 25.2549L19.1639 27.9751H19.7122L20.9845 25.2549H20.4363Z" fill="#F2F4F7"/>
<path d="M17.0412 25.2549L15.7683 27.9829H16.3045L17.5795 25.2549H17.0412Z" fill="#F2F4F7"/>
</svg>
