<svg width="343" height="458" viewBox="0 0 343 458" fill="none" xmlns="http://www.w3.org/2000/svg">
<path d="M44.8684 192.134L44.8553 192.161H13.1361L74.4814 63.7576L71.0573 51.6797L0 200.409H31.7192L31.7323 200.381H112.918L110.636 192.134H44.8684Z" fill="#F2F4F7"/>
<path d="M73.886 173.838L73.8729 173.866H42.158L81.969 90.5299L78.4661 78.1587L29.022 182.113H60.7368L60.7499 182.086H107.786L105.504 173.838H73.886Z" fill="#F2F4F7"/>
<path d="M257.861 173.756V173.737H243.665L243.652 173.765H162.462L164.744 182.008H230.849L230.862 181.98H245.053V181.999H330.197L201.358 457.872H210.313L343 173.756H257.861Z" fill="#F2F4F7"/>
<path d="M229.938 192.102V192.083H215.742L215.729 192.111H167.822L170.103 200.354H202.926L202.939 200.326H217.135V200.34H302.278L182.241 458H190.998L315.081 192.102H229.938Z" fill="#F2F4F7"/>
<path d="M87.1402 23.2852L81.8201 34.63L187.78 411.851L192.973 400.781L87.1402 23.2852Z" fill="#F2F4F7"/>
<path d="M98.0608 0L92.7407 11.3448L198.705 388.565L203.894 377.496L98.0608 0Z" fill="#F2F4F7"/>
<path d="M333.792 413.097L313.01 457.592H321.965L342.746 413.097H333.792Z" fill="#F2F4F7"/>
<path d="M278.34 413.097L257.55 457.721H266.307L287.132 413.097H278.34Z" fill="#F2F4F7"/>
</svg>
